#!OML:ASF F:\VICON\USERDATA\INSTALL\rory3\rory3.ASF
:FULLY-SPECIFIED
:DEGREES
146
root -8.03934 17.7753 4.87214 -0.768165 46.7346 2.39108
lowerback 9.99052 -0.846438 -4.14432
upperback 0.496062 -1.56311 0.366944
thorax -4.96724 -0.668268 2.93684
lowerneck -21.1233 -4.95057 -11.3389
upperneck 28.8577 -5.05777 6.71093
head 13.8367 -2.47628 3.71383
rclavicle 5.18828e-014 3.47873e-015
rhumerus -39.2934 -21.6555 -73.9216
rradius 24.471
rwrist 12.0408
rhand -15.4482 8.12933
rfingers 7.12502
rthumb 10.7325 -21.5765
lclavicle 5.18828e-014 3.47873e-015
lhumerus -30.4003 7.10668 85.0437
lradius 31.988
lwrist -5.78023
lhand -17.5294 26.0084
lfingers 7.12502
lthumb 8.72451 55.8081
rfemur -21.1835 4.86045 16.3115
rtibia 26.0157
rfoot -1.69424 8.80956
rtoes -1.1027
lfemur 14.8201 -6.5023 -29.0512
ltibia 23.9804
lfoot 8.62195 -18.6263
ltoes 7.1318
147
root -7.93899 17.7897 4.99982 -0.948016 46.9167 2.19295
lowerback 9.90437 -0.743431 -4.03827
upperback 0.521284 -1.40731 0.41459
thorax -4.90615 -0.595186 2.90316
lowerneck -21.1236 -4.98438 -11.0351
upperneck 28.8047 -5.08862 6.32544
head 13.7951 -2.50742 3.49673
rclavicle -3.1234e-014 6.06293e-015
rhumerus -39.2497 -21.6121 -73.937
rradius 24.5805
rwrist 11.605
rhand -15.4894 8.20841
rfingers 7.12502
rthumb 10.6927 -21.4995
lclavicle -3.1234e-014 6.06293e-015
lhumerus -30.7376 7.30004 85.0049
lradius 31.2341
lwrist -5.808
lhand -17.6104 26.1361
lfingers 7.12502
lthumb 8.64628 55.939
rfemur -20.6798 4.83434 16.5366
rtibia 26.3226
rfoot -1.96266 9.56849
rtoes 2.29668
lfemur 13.7528 -6.16131 -28.4968
ltibia 26.2297
lfoot 12.0436 -18.5212
ltoes 11.1177
148
root -7.83985 17.8015 5.12539 -1.15356 47.2888 2.01333
lowerback 9.88016 -0.690999 -3.93821
upperback 0.567942 -1.32048 0.48308
thorax -4.85098 -0.555721 2.90539
lowerneck -21.1861 -5.06657 -11.1835
upperneck 28.793 -5.16355 6.38276
head 13.8196 -2.54709 3.5305
rclavicle -3.25261e-014 1.28216e-014
rhumerus -39.1583 -21.5143 -73.9343
rradius 24.682
rwrist 11.3309
rhand -15.4648 8.12418
rfingers 7.12502
rthumb 10.7164 -21.5825
lclavicle -3.25261e-014 1.28216e-014
lhumerus -31.0263 8.05749 84.8321
lradius 30.4569
lwrist -6.76478
lhand -17.4774 25.7746
lfingers 7.12502
lthumb 8.77466 55.5722
rfemur -20.1135 4.56828 16.7723
rtibia 26.6771
rfoot -2.69819 9.58646
rtoes 2.45427
lfemur 12.7856 -6.06248 -27.9619
ltibia 28.2675
lfoot 15.659 -18.1256
ltoes 13.7564
149
root -7.74107 17.8129 5.2483 -1.37926 47.8339 1.81556
lowerback 9.88176 -0.718917 -3.81872
upperback 0.603765 -1.34034 0.539584
thorax -4.81399 -0.568798 2.89931
lowerneck -21.0985 -5.08001 -11.2894
upperneck 28.6373 -5.17114 6.45032
head 13.7414 -2.55207 3.57079
rclavicle -6.10952e-014 -1.88845e-015
rhumerus -38.9983 -21.2706 -74.0394
rradius 24.7973
rwrist 10.9991
rhand -15.5162 7.72372
rfingers 7.12502
rthumb 10.6668 -21.9855
lclavicle -6.10952e-014 -1.88845e-015
lhumerus -31.3047 8.82426 84.6027
lradius 29.7004
lwrist -7.71571
lhand -17.381 25.7251
lfingers 7.12502
lthumb 8.8677 55.5188
rfemur -19.4835 4.13835 17.0305
rtibia 26.9833
rfoot -3.55939 9.20339
rtoes 1.52147
lfemur 11.7723 -6.03407 -27.3565
ltibia 30.2249
lfoot 19.2397 -18.1353
ltoes 13.9091
150
root -7.64674 17.8245 5.37371 -1.51239 48.475 1.74545
lowerback 9.91655 -0.792568 -3.89348
upperback 0.620177 -1.44517 0.582275
thorax -4.80524 -0.618834 3.00091
lowerneck -20.8762 -4.98935 -11.1435
upperneck 28.3515 -5.07368 6.33999
head 13.5529 -2.50834 3.51273
rclavicle 4.28878e-014 -6.95746e-016
rhumerus -38.785 -20.9243 -74.2243
rradius 24.8252
rwrist 10.6592
rhand -15.6716 7.6209
rfingers 7.12502
rthumb 10.5169 -22.096
lclavicle 4.28878e-014 -6.95746e-016
lhumerus -31.6856 8.95562 84.5109
lradius 29.193
lwrist -7.92661
lhand -17.7504 25.6631
lfingers 7.12502
lthumb 8.51126 55.4715
rfemur -18.8113 3.71023 17.2153
rtibia 27.1674
rfoot -4.29128 9.07644
rtoes 1.17661
lfemur 10.6595 -6.08431 -26.8403
ltibia 32.1839
lfoot 22.6562 -18.6502
ltoes 13.1818
151
root -7.55413 17.8393 5.50438 -1.78674 49.1237 1.44683
lowerback 9.90477 -0.820153 -3.88397
upperback 0.639628 -1.4748 0.677932
thorax -4.77356 -0.6337 3.09908
lowerneck -20.8001 -4.99793 -11.0904
upperneck 28.2412 -5.10273 6.31766
head 13.4909 -2.51747 3.48693
rclavicle -1.80024e-014 1.00386e-014
rhumerus -38.6413 -20.6307 -74.3443
rradius 24.8684
rwrist 10.3676
rhand -15.686 7.81524
rfingers 7.12502
rthumb 10.5031 -21.9024
lclavicle -1.80024e-014 1.00386e-014
lhumerus -32.0025 8.81676 84.5315
lradius 28.6505
lwrist -7.98796
lhand -18.7052 25.8658
lfingers 7.12502
lthumb 7.58966 55.7097
rfemur -18.0719 3.29902 17.6009
rtibia 27.1568
rfoot -4.68496 9.04763
rtoes 1.78025
lfemur 9.42219 -6.22028 -26.1863
ltibia 34.2124
lfoot 25.694 -19.3666
ltoes 12.7385
